<mxfile host="app.diagrams.net" modified="2022-04-09T02:50:53.550Z" agent="5.0 (Macintosh; Intel Mac OS X 10_15_7) AppleWebKit/537.36 (KHTML, like Gecko) Chrome/100.0.4896.75 Safari/537.36" etag="meFGh1T1nNNgmNQd6ssN" version="17.4.0" type="github">
  <diagram id="93Ngcf3RvPuJD8LFvW3L" name="Page-1">
    <mxGraphModel dx="2494" dy="1588" grid="1" gridSize="10" guides="1" tooltips="1" connect="1" arrows="1" fold="1" page="1" pageScale="1" pageWidth="850" pageHeight="1100" math="0" shadow="0">
      <root>
        <mxCell id="0" />
        <mxCell id="1" parent="0" />
        <mxCell id="HHoXv9YRz0qzlwkMwSRR-1" value="" style="rounded=0;whiteSpace=wrap;html=1;fillColor=#bac8d3;strokeColor=#23445d;" parent="1" vertex="1">
          <mxGeometry x="75" y="100" width="640" height="780" as="geometry" />
        </mxCell>
        <mxCell id="HHoXv9YRz0qzlwkMwSRR-2" value="Logo" style="rounded=0;whiteSpace=wrap;html=1;" parent="1" vertex="1">
          <mxGeometry x="85" y="110" width="70" height="30" as="geometry" />
        </mxCell>
        <mxCell id="HHoXv9YRz0qzlwkMwSRR-3" value="search bar" style="rounded=0;whiteSpace=wrap;html=1;" parent="1" vertex="1">
          <mxGeometry x="175" y="110" width="440" height="30" as="geometry" />
        </mxCell>
        <mxCell id="HHoXv9YRz0qzlwkMwSRR-4" value="logged user" style="rounded=0;whiteSpace=wrap;html=1;" parent="1" vertex="1">
          <mxGeometry x="625" y="110" width="80" height="30" as="geometry" />
        </mxCell>
        <mxCell id="HHoXv9YRz0qzlwkMwSRR-5" value="" style="endArrow=none;html=1;rounded=0;entryX=0.998;entryY=0.061;entryDx=0;entryDy=0;entryPerimeter=0;" parent="1" target="HHoXv9YRz0qzlwkMwSRR-1" edge="1">
          <mxGeometry width="50" height="50" relative="1" as="geometry">
            <mxPoint x="75" y="146" as="sourcePoint" />
            <mxPoint x="475" y="460" as="targetPoint" />
          </mxGeometry>
        </mxCell>
        <mxCell id="HHoXv9YRz0qzlwkMwSRR-6" value="navbar" style="rounded=0;whiteSpace=wrap;html=1;" parent="1" vertex="1">
          <mxGeometry x="75" y="150" width="640" height="30" as="geometry" />
        </mxCell>
        <mxCell id="HHoXv9YRz0qzlwkMwSRR-19" value="newest post" style="rounded=0;whiteSpace=wrap;html=1;" parent="1" vertex="1">
          <mxGeometry x="140" y="220" width="510" height="130" as="geometry" />
        </mxCell>
        <mxCell id="HHoXv9YRz0qzlwkMwSRR-20" value="post" style="rounded=0;whiteSpace=wrap;html=1;" parent="1" vertex="1">
          <mxGeometry x="140" y="370" width="510" height="130" as="geometry" />
        </mxCell>
        <mxCell id="HHoXv9YRz0qzlwkMwSRR-21" value="post" style="rounded=0;whiteSpace=wrap;html=1;" parent="1" vertex="1">
          <mxGeometry x="140" y="520" width="510" height="130" as="geometry" />
        </mxCell>
        <mxCell id="HHoXv9YRz0qzlwkMwSRR-22" value="post" style="rounded=0;whiteSpace=wrap;html=1;" parent="1" vertex="1">
          <mxGeometry x="140" y="670" width="510" height="130" as="geometry" />
        </mxCell>
        <mxCell id="HHoXv9YRz0qzlwkMwSRR-23" value="oldest post" style="rounded=0;whiteSpace=wrap;html=1;" parent="1" vertex="1">
          <mxGeometry x="140" y="820" width="510" height="60" as="geometry" />
        </mxCell>
        <mxCell id="HHoXv9YRz0qzlwkMwSRR-24" value="" style="rounded=0;whiteSpace=wrap;html=1;" parent="1" vertex="1">
          <mxGeometry x="705" y="180" width="10" height="700" as="geometry" />
        </mxCell>
        <mxCell id="HHoXv9YRz0qzlwkMwSRR-25" value="" style="rounded=0;whiteSpace=wrap;html=1;" parent="1" vertex="1">
          <mxGeometry x="705" y="180" width="10" height="50" as="geometry" />
        </mxCell>
        <mxCell id="HHoXv9YRz0qzlwkMwSRR-28" value="" style="rounded=0;whiteSpace=wrap;html=1;fillColor=#bac8d3;strokeColor=#23445d;" parent="1" vertex="1">
          <mxGeometry x="-722.5" y="90" width="640" height="780" as="geometry" />
        </mxCell>
        <mxCell id="HHoXv9YRz0qzlwkMwSRR-29" value="Logo" style="rounded=0;whiteSpace=wrap;html=1;" parent="1" vertex="1">
          <mxGeometry x="-712.5" y="100" width="70" height="30" as="geometry" />
        </mxCell>
        <mxCell id="HHoXv9YRz0qzlwkMwSRR-30" value="search bar" style="rounded=0;whiteSpace=wrap;html=1;" parent="1" vertex="1">
          <mxGeometry x="-622.5" y="100" width="440" height="30" as="geometry" />
        </mxCell>
        <mxCell id="HHoXv9YRz0qzlwkMwSRR-31" value="register" style="rounded=0;whiteSpace=wrap;html=1;" parent="1" vertex="1">
          <mxGeometry x="-172.5" y="100" width="80" height="30" as="geometry" />
        </mxCell>
        <mxCell id="HHoXv9YRz0qzlwkMwSRR-32" value="" style="endArrow=none;html=1;rounded=0;entryX=0.998;entryY=0.061;entryDx=0;entryDy=0;entryPerimeter=0;" parent="1" target="HHoXv9YRz0qzlwkMwSRR-28" edge="1">
          <mxGeometry width="50" height="50" relative="1" as="geometry">
            <mxPoint x="-722.4999999999998" y="136" as="sourcePoint" />
            <mxPoint x="-322.5" y="450" as="targetPoint" />
          </mxGeometry>
        </mxCell>
        <mxCell id="HHoXv9YRz0qzlwkMwSRR-33" value="navbar" style="rounded=0;whiteSpace=wrap;html=1;" parent="1" vertex="1">
          <mxGeometry x="-722.5" y="140" width="640" height="30" as="geometry" />
        </mxCell>
        <mxCell id="HHoXv9YRz0qzlwkMwSRR-34" value="login" style="rounded=0;whiteSpace=wrap;html=1;" parent="1" vertex="1">
          <mxGeometry x="-657.5" y="210" width="510" height="130" as="geometry" />
        </mxCell>
        <mxCell id="HHoXv9YRz0qzlwkMwSRR-39" value="" style="rounded=0;whiteSpace=wrap;html=1;" parent="1" vertex="1">
          <mxGeometry x="-92.5" y="170" width="10" height="700" as="geometry" />
        </mxCell>
        <mxCell id="HHoXv9YRz0qzlwkMwSRR-40" value="" style="rounded=0;whiteSpace=wrap;html=1;" parent="1" vertex="1">
          <mxGeometry x="-92.5" y="170" width="10" height="50" as="geometry" />
        </mxCell>
        <mxCell id="HHoXv9YRz0qzlwkMwSRR-41" value="" style="rounded=0;whiteSpace=wrap;html=1;" parent="1" vertex="1">
          <mxGeometry x="1900" width="640" height="780" as="geometry" />
        </mxCell>
        <mxCell id="HHoXv9YRz0qzlwkMwSRR-42" value="Logo" style="rounded=0;whiteSpace=wrap;html=1;" parent="1" vertex="1">
          <mxGeometry x="1910" y="10" width="70" height="30" as="geometry" />
        </mxCell>
        <mxCell id="HHoXv9YRz0qzlwkMwSRR-43" value="search bar" style="rounded=0;whiteSpace=wrap;html=1;" parent="1" vertex="1">
          <mxGeometry x="2000" y="10" width="440" height="30" as="geometry" />
        </mxCell>
        <mxCell id="HHoXv9YRz0qzlwkMwSRR-44" value="logged user" style="rounded=0;whiteSpace=wrap;html=1;" parent="1" vertex="1">
          <mxGeometry x="2450" y="10" width="80" height="30" as="geometry" />
        </mxCell>
        <mxCell id="HHoXv9YRz0qzlwkMwSRR-45" value="" style="endArrow=none;html=1;rounded=0;entryX=0.998;entryY=0.061;entryDx=0;entryDy=0;entryPerimeter=0;" parent="1" target="HHoXv9YRz0qzlwkMwSRR-41" edge="1">
          <mxGeometry width="50" height="50" relative="1" as="geometry">
            <mxPoint x="1900.0000000000002" y="46" as="sourcePoint" />
            <mxPoint x="2300" y="360" as="targetPoint" />
          </mxGeometry>
        </mxCell>
        <mxCell id="HHoXv9YRz0qzlwkMwSRR-46" value="navbar" style="rounded=0;whiteSpace=wrap;html=1;" parent="1" vertex="1">
          <mxGeometry x="1900" y="50" width="640" height="30" as="geometry" />
        </mxCell>
        <mxCell id="HHoXv9YRz0qzlwkMwSRR-47" value="post" style="rounded=0;whiteSpace=wrap;html=1;" parent="1" vertex="1">
          <mxGeometry x="2010" y="150" width="510" height="130" as="geometry" />
        </mxCell>
        <mxCell id="HHoXv9YRz0qzlwkMwSRR-48" value="post" style="rounded=0;whiteSpace=wrap;html=1;" parent="1" vertex="1">
          <mxGeometry x="1990" y="190" width="510" height="130" as="geometry" />
        </mxCell>
        <mxCell id="HHoXv9YRz0qzlwkMwSRR-49" value="post / blur" style="rounded=0;whiteSpace=wrap;html=1;" parent="1" vertex="1">
          <mxGeometry x="1965" y="240" width="510" height="130" as="geometry" />
        </mxCell>
        <mxCell id="HHoXv9YRz0qzlwkMwSRR-52" value="" style="rounded=0;whiteSpace=wrap;html=1;" parent="1" vertex="1">
          <mxGeometry x="2530" y="80" width="10" height="700" as="geometry" />
        </mxCell>
        <mxCell id="HHoXv9YRz0qzlwkMwSRR-53" value="" style="rounded=0;whiteSpace=wrap;html=1;" parent="1" vertex="1">
          <mxGeometry x="2530" y="80" width="10" height="50" as="geometry" />
        </mxCell>
        <mxCell id="HHoXv9YRz0qzlwkMwSRR-54" value="post" style="rounded=0;whiteSpace=wrap;html=1;" parent="1" vertex="1">
          <mxGeometry x="1990" y="430" width="510" height="130" as="geometry" />
        </mxCell>
        <mxCell id="HHoXv9YRz0qzlwkMwSRR-55" value="post" style="rounded=0;whiteSpace=wrap;html=1;" parent="1" vertex="1">
          <mxGeometry x="1970" y="470" width="510" height="130" as="geometry" />
        </mxCell>
        <mxCell id="HHoXv9YRz0qzlwkMwSRR-56" value="post / blur" style="rounded=0;whiteSpace=wrap;html=1;" parent="1" vertex="1">
          <mxGeometry x="1945" y="520" width="510" height="130" as="geometry" />
        </mxCell>
        <mxCell id="HHoXv9YRz0qzlwkMwSRR-58" value="" style="rounded=0;whiteSpace=wrap;html=1;" parent="1" vertex="1">
          <mxGeometry x="2620" width="640" height="780" as="geometry" />
        </mxCell>
        <mxCell id="HHoXv9YRz0qzlwkMwSRR-59" value="Logo" style="rounded=0;whiteSpace=wrap;html=1;" parent="1" vertex="1">
          <mxGeometry x="2630" y="10" width="70" height="30" as="geometry" />
        </mxCell>
        <mxCell id="HHoXv9YRz0qzlwkMwSRR-60" value="search bar" style="rounded=0;whiteSpace=wrap;html=1;" parent="1" vertex="1">
          <mxGeometry x="2720" y="10" width="440" height="30" as="geometry" />
        </mxCell>
        <mxCell id="HHoXv9YRz0qzlwkMwSRR-61" value="logged user" style="rounded=0;whiteSpace=wrap;html=1;" parent="1" vertex="1">
          <mxGeometry x="3170" y="10" width="80" height="30" as="geometry" />
        </mxCell>
        <mxCell id="HHoXv9YRz0qzlwkMwSRR-62" value="" style="endArrow=none;html=1;rounded=0;entryX=0.998;entryY=0.061;entryDx=0;entryDy=0;entryPerimeter=0;" parent="1" target="HHoXv9YRz0qzlwkMwSRR-58" edge="1">
          <mxGeometry width="50" height="50" relative="1" as="geometry">
            <mxPoint x="2620" y="46" as="sourcePoint" />
            <mxPoint x="3020" y="360" as="targetPoint" />
          </mxGeometry>
        </mxCell>
        <mxCell id="HHoXv9YRz0qzlwkMwSRR-63" value="navbar" style="rounded=0;whiteSpace=wrap;html=1;" parent="1" vertex="1">
          <mxGeometry x="2620" y="50" width="640" height="30" as="geometry" />
        </mxCell>
        <mxCell id="HHoXv9YRz0qzlwkMwSRR-64" value="post" style="rounded=0;whiteSpace=wrap;html=1;" parent="1" vertex="1">
          <mxGeometry x="2730" y="150" width="510" height="130" as="geometry" />
        </mxCell>
        <mxCell id="HHoXv9YRz0qzlwkMwSRR-65" value="post" style="rounded=0;whiteSpace=wrap;html=1;" parent="1" vertex="1">
          <mxGeometry x="2710" y="190" width="510" height="130" as="geometry" />
        </mxCell>
        <mxCell id="HHoXv9YRz0qzlwkMwSRR-66" value="post" style="rounded=0;whiteSpace=wrap;html=1;" parent="1" vertex="1">
          <mxGeometry x="2685" y="240" width="510" height="130" as="geometry" />
        </mxCell>
        <mxCell id="HHoXv9YRz0qzlwkMwSRR-67" value="" style="rounded=0;whiteSpace=wrap;html=1;" parent="1" vertex="1">
          <mxGeometry x="3250" y="80" width="10" height="700" as="geometry" />
        </mxCell>
        <mxCell id="HHoXv9YRz0qzlwkMwSRR-68" value="" style="rounded=0;whiteSpace=wrap;html=1;" parent="1" vertex="1">
          <mxGeometry x="3250" y="80" width="10" height="50" as="geometry" />
        </mxCell>
        <mxCell id="HHoXv9YRz0qzlwkMwSRR-69" value="post" style="rounded=0;whiteSpace=wrap;html=1;" parent="1" vertex="1">
          <mxGeometry x="2710" y="430" width="510" height="130" as="geometry" />
        </mxCell>
        <mxCell id="HHoXv9YRz0qzlwkMwSRR-70" value="post / blur" style="rounded=0;whiteSpace=wrap;html=1;" parent="1" vertex="1">
          <mxGeometry x="2690" y="470" width="510" height="130" as="geometry" />
        </mxCell>
        <mxCell id="HHoXv9YRz0qzlwkMwSRR-71" value="post / focus" style="rounded=0;whiteSpace=wrap;html=1;" parent="1" vertex="1">
          <mxGeometry x="2645" y="160" width="590" height="280" as="geometry" />
        </mxCell>
        <mxCell id="HHoXv9YRz0qzlwkMwSRR-72" value="" style="rounded=0;whiteSpace=wrap;html=1;fillColor=#bac8d3;strokeColor=#23445d;" parent="1" vertex="1">
          <mxGeometry x="-725" y="1210" width="640" height="780" as="geometry" />
        </mxCell>
        <mxCell id="HHoXv9YRz0qzlwkMwSRR-73" value="Logo" style="rounded=0;whiteSpace=wrap;html=1;" parent="1" vertex="1">
          <mxGeometry x="-715" y="1220" width="70" height="30" as="geometry" />
        </mxCell>
        <mxCell id="HHoXv9YRz0qzlwkMwSRR-74" value="search bar" style="rounded=0;whiteSpace=wrap;html=1;" parent="1" vertex="1">
          <mxGeometry x="-625" y="1220" width="440" height="30" as="geometry" />
        </mxCell>
        <mxCell id="HHoXv9YRz0qzlwkMwSRR-75" value="logged user" style="rounded=0;whiteSpace=wrap;html=1;" parent="1" vertex="1">
          <mxGeometry x="-175" y="1220" width="80" height="30" as="geometry" />
        </mxCell>
        <mxCell id="HHoXv9YRz0qzlwkMwSRR-76" value="" style="endArrow=none;html=1;rounded=0;entryX=0.998;entryY=0.061;entryDx=0;entryDy=0;entryPerimeter=0;" parent="1" target="HHoXv9YRz0qzlwkMwSRR-72" edge="1">
          <mxGeometry width="50" height="50" relative="1" as="geometry">
            <mxPoint x="-725" y="1256" as="sourcePoint" />
            <mxPoint x="-325" y="1570" as="targetPoint" />
          </mxGeometry>
        </mxCell>
        <mxCell id="HHoXv9YRz0qzlwkMwSRR-77" value="navbar" style="rounded=0;whiteSpace=wrap;html=1;" parent="1" vertex="1">
          <mxGeometry x="-725" y="1260" width="640" height="30" as="geometry" />
        </mxCell>
        <mxCell id="HHoXv9YRz0qzlwkMwSRR-78" value="post" style="rounded=0;whiteSpace=wrap;html=1;" parent="1" vertex="1">
          <mxGeometry x="-660" y="1330" width="510" height="130" as="geometry" />
        </mxCell>
        <mxCell id="HHoXv9YRz0qzlwkMwSRR-79" value="post" style="rounded=0;whiteSpace=wrap;html=1;" parent="1" vertex="1">
          <mxGeometry x="-660" y="1480" width="510" height="130" as="geometry" />
        </mxCell>
        <mxCell id="HHoXv9YRz0qzlwkMwSRR-80" value="post" style="rounded=0;whiteSpace=wrap;html=1;" parent="1" vertex="1">
          <mxGeometry x="-660" y="1630" width="510" height="130" as="geometry" />
        </mxCell>
        <mxCell id="HHoXv9YRz0qzlwkMwSRR-81" value="post" style="rounded=0;whiteSpace=wrap;html=1;" parent="1" vertex="1">
          <mxGeometry x="-660" y="1780" width="510" height="130" as="geometry" />
        </mxCell>
        <mxCell id="HHoXv9YRz0qzlwkMwSRR-82" value="&lt;br&gt;&lt;br&gt;post" style="rounded=0;whiteSpace=wrap;html=1;" parent="1" vertex="1">
          <mxGeometry x="-660" y="1930" width="510" height="60" as="geometry" />
        </mxCell>
        <mxCell id="HHoXv9YRz0qzlwkMwSRR-83" value="" style="rounded=0;whiteSpace=wrap;html=1;" parent="1" vertex="1">
          <mxGeometry x="-95" y="1290" width="10" height="700" as="geometry" />
        </mxCell>
        <mxCell id="HHoXv9YRz0qzlwkMwSRR-84" value="" style="rounded=0;whiteSpace=wrap;html=1;" parent="1" vertex="1">
          <mxGeometry x="-95" y="1290" width="10" height="50" as="geometry" />
        </mxCell>
        <mxCell id="HHoXv9YRz0qzlwkMwSRR-85" value="post / focus" style="rounded=0;whiteSpace=wrap;html=1;fillColor=#bac8d3;strokeColor=#23445d;gradientColor=none;strokeWidth=4;perimeterSpacing=8;glass=0;shadow=1;sketch=0;" parent="1" vertex="1">
          <mxGeometry x="-705" y="1320" width="590" height="280" as="geometry" />
        </mxCell>
        <mxCell id="HHoXv9YRz0qzlwkMwSRR-86" value="photo" style="whiteSpace=wrap;html=1;aspect=fixed;" parent="1" vertex="1">
          <mxGeometry x="-685" y="1340" width="230" height="230" as="geometry" />
        </mxCell>
        <mxCell id="HHoXv9YRz0qzlwkMwSRR-87" value="description" style="swimlane;fontStyle=0;childLayout=stackLayout;horizontal=1;startSize=30;horizontalStack=0;resizeParent=1;resizeParentMax=0;resizeLast=0;collapsible=1;marginBottom=0;" parent="1" vertex="1">
          <mxGeometry x="-375" y="1340" width="240" height="210" as="geometry" />
        </mxCell>
        <mxCell id="HHoXv9YRz0qzlwkMwSRR-88" value="Item 1" style="text;align=left;verticalAlign=middle;spacingLeft=4;spacingRight=4;overflow=hidden;points=[[0,0.5],[1,0.5]];portConstraint=eastwest;rotatable=0;fillColor=default;" parent="HHoXv9YRz0qzlwkMwSRR-87" vertex="1">
          <mxGeometry y="30" width="240" height="30" as="geometry" />
        </mxCell>
        <mxCell id="HHoXv9YRz0qzlwkMwSRR-89" value="Item 2" style="text;align=left;verticalAlign=middle;spacingLeft=4;spacingRight=4;overflow=hidden;points=[[0,0.5],[1,0.5]];portConstraint=eastwest;rotatable=0;fillColor=default;" parent="HHoXv9YRz0qzlwkMwSRR-87" vertex="1">
          <mxGeometry y="60" width="240" height="30" as="geometry" />
        </mxCell>
        <mxCell id="HHoXv9YRz0qzlwkMwSRR-90" value="Item 3" style="text;align=left;verticalAlign=middle;spacingLeft=4;spacingRight=4;overflow=hidden;points=[[0,0.5],[1,0.5]];portConstraint=eastwest;rotatable=0;fillColor=default;" parent="HHoXv9YRz0qzlwkMwSRR-87" vertex="1">
          <mxGeometry y="90" width="240" height="30" as="geometry" />
        </mxCell>
        <mxCell id="HHoXv9YRz0qzlwkMwSRR-91" value="Item 4" style="text;align=left;verticalAlign=middle;spacingLeft=4;spacingRight=4;overflow=hidden;points=[[0,0.5],[1,0.5]];portConstraint=eastwest;rotatable=0;fillColor=default;" parent="HHoXv9YRz0qzlwkMwSRR-87" vertex="1">
          <mxGeometry y="120" width="240" height="30" as="geometry" />
        </mxCell>
        <mxCell id="HHoXv9YRz0qzlwkMwSRR-92" value="Item 5" style="text;align=left;verticalAlign=middle;spacingLeft=4;spacingRight=4;overflow=hidden;points=[[0,0.5],[1,0.5]];portConstraint=eastwest;rotatable=0;fillColor=default;" parent="HHoXv9YRz0qzlwkMwSRR-87" vertex="1">
          <mxGeometry y="150" width="240" height="30" as="geometry" />
        </mxCell>
        <mxCell id="HHoXv9YRz0qzlwkMwSRR-93" value="Item 6" style="text;align=left;verticalAlign=middle;spacingLeft=4;spacingRight=4;overflow=hidden;points=[[0,0.5],[1,0.5]];portConstraint=eastwest;rotatable=0;fillColor=default;" parent="HHoXv9YRz0qzlwkMwSRR-87" vertex="1">
          <mxGeometry y="180" width="240" height="30" as="geometry" />
        </mxCell>
        <mxCell id="HHoXv9YRz0qzlwkMwSRR-94" value="" style="rounded=0;whiteSpace=wrap;html=1;fillColor=#bac8d3;strokeColor=#23445d;" parent="1" vertex="1">
          <mxGeometry x="90" y="2320" width="640" height="780" as="geometry" />
        </mxCell>
        <mxCell id="HHoXv9YRz0qzlwkMwSRR-95" value="Logo" style="rounded=0;whiteSpace=wrap;html=1;" parent="1" vertex="1">
          <mxGeometry x="100" y="2330" width="70" height="30" as="geometry" />
        </mxCell>
        <mxCell id="HHoXv9YRz0qzlwkMwSRR-96" value="search bar" style="rounded=0;whiteSpace=wrap;html=1;" parent="1" vertex="1">
          <mxGeometry x="190" y="2330" width="440" height="30" as="geometry" />
        </mxCell>
        <mxCell id="HHoXv9YRz0qzlwkMwSRR-97" value="logged user" style="rounded=0;whiteSpace=wrap;html=1;" parent="1" vertex="1">
          <mxGeometry x="640" y="2330" width="80" height="30" as="geometry" />
        </mxCell>
        <mxCell id="HHoXv9YRz0qzlwkMwSRR-98" value="" style="endArrow=none;html=1;rounded=0;entryX=0.998;entryY=0.061;entryDx=0;entryDy=0;entryPerimeter=0;" parent="1" target="HHoXv9YRz0qzlwkMwSRR-94" edge="1">
          <mxGeometry width="50" height="50" relative="1" as="geometry">
            <mxPoint x="90" y="2366" as="sourcePoint" />
            <mxPoint x="490" y="2680" as="targetPoint" />
          </mxGeometry>
        </mxCell>
        <mxCell id="HHoXv9YRz0qzlwkMwSRR-99" value="navbar" style="rounded=0;whiteSpace=wrap;html=1;" parent="1" vertex="1">
          <mxGeometry x="90" y="2480" width="640" height="30" as="geometry" />
        </mxCell>
        <mxCell id="HHoXv9YRz0qzlwkMwSRR-100" value="post" style="rounded=0;whiteSpace=wrap;html=1;" parent="1" vertex="1">
          <mxGeometry x="155" y="2685" width="510" height="130" as="geometry" />
        </mxCell>
        <mxCell id="HHoXv9YRz0qzlwkMwSRR-101" value="post" style="rounded=0;whiteSpace=wrap;html=1;" parent="1" vertex="1">
          <mxGeometry x="155" y="2835" width="510" height="130" as="geometry" />
        </mxCell>
        <mxCell id="HHoXv9YRz0qzlwkMwSRR-102" value="post" style="rounded=0;whiteSpace=wrap;html=1;" parent="1" vertex="1">
          <mxGeometry x="155" y="2985" width="510" height="115" as="geometry" />
        </mxCell>
        <mxCell id="HHoXv9YRz0qzlwkMwSRR-105" value="" style="rounded=0;whiteSpace=wrap;html=1;" parent="1" vertex="1">
          <mxGeometry x="720" y="2490" width="10" height="610" as="geometry" />
        </mxCell>
        <mxCell id="HHoXv9YRz0qzlwkMwSRR-106" value="" style="rounded=0;whiteSpace=wrap;html=1;" parent="1" vertex="1">
          <mxGeometry x="720" y="2490" width="10" height="50" as="geometry" />
        </mxCell>
        <mxCell id="HHoXv9YRz0qzlwkMwSRR-107" value="filter params" style="rounded=0;whiteSpace=wrap;html=1;shadow=1;glass=0;sketch=0;strokeWidth=4;fillColor=default;gradientColor=none;" parent="1" vertex="1">
          <mxGeometry x="100" y="2370" width="620" height="110" as="geometry" />
        </mxCell>
        <mxCell id="HHoXv9YRz0qzlwkMwSRR-108" value="" style="rounded=0;whiteSpace=wrap;html=1;shadow=0;glass=0;sketch=0;strokeWidth=1;fillColor=default;gradientColor=none;" parent="1" vertex="1">
          <mxGeometry x="230" y="2390" width="140" height="20" as="geometry" />
        </mxCell>
        <mxCell id="HHoXv9YRz0qzlwkMwSRR-109" value="" style="rounded=0;whiteSpace=wrap;html=1;shadow=0;glass=0;sketch=0;strokeWidth=1;fillColor=default;gradientColor=none;" parent="1" vertex="1">
          <mxGeometry x="230" y="2420" width="140" height="20" as="geometry" />
        </mxCell>
        <mxCell id="HHoXv9YRz0qzlwkMwSRR-110" value="" style="rounded=0;whiteSpace=wrap;html=1;shadow=0;glass=0;sketch=0;strokeWidth=1;fillColor=default;gradientColor=none;" parent="1" vertex="1">
          <mxGeometry x="230" y="2450" width="140" height="20" as="geometry" />
        </mxCell>
        <mxCell id="HHoXv9YRz0qzlwkMwSRR-111" value="" style="rounded=0;whiteSpace=wrap;html=1;shadow=0;glass=0;sketch=0;strokeWidth=1;fillColor=default;gradientColor=none;" parent="1" vertex="1">
          <mxGeometry x="450" y="2390" width="140" height="20" as="geometry" />
        </mxCell>
        <mxCell id="HHoXv9YRz0qzlwkMwSRR-112" value="" style="rounded=0;whiteSpace=wrap;html=1;shadow=0;glass=0;sketch=0;strokeWidth=1;fillColor=default;gradientColor=none;" parent="1" vertex="1">
          <mxGeometry x="450" y="2420" width="140" height="20" as="geometry" />
        </mxCell>
        <mxCell id="HHoXv9YRz0qzlwkMwSRR-113" value="" style="rounded=0;whiteSpace=wrap;html=1;shadow=0;glass=0;sketch=0;strokeWidth=1;fillColor=default;gradientColor=none;" parent="1" vertex="1">
          <mxGeometry x="450" y="2450" width="140" height="20" as="geometry" />
        </mxCell>
        <mxCell id="HHoXv9YRz0qzlwkMwSRR-114" value="post" style="rounded=0;whiteSpace=wrap;html=1;" parent="1" vertex="1">
          <mxGeometry x="155" y="2540" width="510" height="130" as="geometry" />
        </mxCell>
        <mxCell id="HHoXv9YRz0qzlwkMwSRR-115" style="edgeStyle=orthogonalEdgeStyle;rounded=0;orthogonalLoop=1;jettySize=auto;html=1;exitX=0.5;exitY=1;exitDx=0;exitDy=0;" parent="1" source="HHoXv9YRz0qzlwkMwSRR-102" target="HHoXv9YRz0qzlwkMwSRR-102" edge="1">
          <mxGeometry relative="1" as="geometry" />
        </mxCell>
        <mxCell id="HHoXv9YRz0qzlwkMwSRR-117" value="" style="rounded=0;whiteSpace=wrap;html=1;fillColor=#bac8d3;strokeColor=#23445d;" parent="1" vertex="1">
          <mxGeometry x="75" y="1220" width="640" height="780" as="geometry" />
        </mxCell>
        <mxCell id="HHoXv9YRz0qzlwkMwSRR-118" value="Logo" style="rounded=0;whiteSpace=wrap;html=1;" parent="1" vertex="1">
          <mxGeometry x="85" y="1230" width="70" height="30" as="geometry" />
        </mxCell>
        <mxCell id="HHoXv9YRz0qzlwkMwSRR-119" value="search bar" style="rounded=0;whiteSpace=wrap;html=1;" parent="1" vertex="1">
          <mxGeometry x="175" y="1230" width="440" height="30" as="geometry" />
        </mxCell>
        <mxCell id="HHoXv9YRz0qzlwkMwSRR-120" value="logged user" style="rounded=0;whiteSpace=wrap;html=1;" parent="1" vertex="1">
          <mxGeometry x="625" y="1230" width="80" height="30" as="geometry" />
        </mxCell>
        <mxCell id="HHoXv9YRz0qzlwkMwSRR-121" value="" style="endArrow=none;html=1;rounded=0;entryX=0.998;entryY=0.061;entryDx=0;entryDy=0;entryPerimeter=0;" parent="1" target="HHoXv9YRz0qzlwkMwSRR-117" edge="1">
          <mxGeometry width="50" height="50" relative="1" as="geometry">
            <mxPoint x="75" y="1266" as="sourcePoint" />
            <mxPoint x="475" y="1580" as="targetPoint" />
          </mxGeometry>
        </mxCell>
        <mxCell id="HHoXv9YRz0qzlwkMwSRR-122" value="navbar" style="rounded=0;whiteSpace=wrap;html=1;" parent="1" vertex="1">
          <mxGeometry x="75" y="1270" width="640" height="30" as="geometry" />
        </mxCell>
        <mxCell id="HHoXv9YRz0qzlwkMwSRR-123" value="post" style="rounded=0;whiteSpace=wrap;html=1;" parent="1" vertex="1">
          <mxGeometry x="140" y="1340" width="510" height="130" as="geometry" />
        </mxCell>
        <mxCell id="HHoXv9YRz0qzlwkMwSRR-124" value="post" style="rounded=0;whiteSpace=wrap;html=1;" parent="1" vertex="1">
          <mxGeometry x="140" y="1490" width="510" height="130" as="geometry" />
        </mxCell>
        <mxCell id="HHoXv9YRz0qzlwkMwSRR-125" value="post" style="rounded=0;whiteSpace=wrap;html=1;" parent="1" vertex="1">
          <mxGeometry x="140" y="1640" width="510" height="130" as="geometry" />
        </mxCell>
        <mxCell id="HHoXv9YRz0qzlwkMwSRR-126" value="post" style="rounded=0;whiteSpace=wrap;html=1;" parent="1" vertex="1">
          <mxGeometry x="140" y="1790" width="510" height="130" as="geometry" />
        </mxCell>
        <mxCell id="HHoXv9YRz0qzlwkMwSRR-127" value="&lt;br&gt;&lt;br&gt;post" style="rounded=0;whiteSpace=wrap;html=1;" parent="1" vertex="1">
          <mxGeometry x="140" y="1940" width="510" height="60" as="geometry" />
        </mxCell>
        <mxCell id="HHoXv9YRz0qzlwkMwSRR-128" value="" style="rounded=0;whiteSpace=wrap;html=1;" parent="1" vertex="1">
          <mxGeometry x="705" y="1300" width="10" height="700" as="geometry" />
        </mxCell>
        <mxCell id="HHoXv9YRz0qzlwkMwSRR-129" value="" style="rounded=0;whiteSpace=wrap;html=1;" parent="1" vertex="1">
          <mxGeometry x="705" y="1300" width="10" height="50" as="geometry" />
        </mxCell>
        <mxCell id="HHoXv9YRz0qzlwkMwSRR-130" value="post / focus" style="rounded=0;whiteSpace=wrap;html=1;fillColor=#bac8d3;strokeColor=#23445d;gradientColor=none;strokeWidth=4;perimeterSpacing=8;glass=0;shadow=1;sketch=0;" parent="1" vertex="1">
          <mxGeometry x="95" y="1330" width="590" height="280" as="geometry" />
        </mxCell>
        <mxCell id="HHoXv9YRz0qzlwkMwSRR-131" value="photo" style="whiteSpace=wrap;html=1;aspect=fixed;" parent="1" vertex="1">
          <mxGeometry x="115" y="1350" width="230" height="230" as="geometry" />
        </mxCell>
        <mxCell id="HHoXv9YRz0qzlwkMwSRR-132" value="description" style="swimlane;fontStyle=0;childLayout=stackLayout;horizontal=1;startSize=30;horizontalStack=0;resizeParent=1;resizeParentMax=0;resizeLast=0;collapsible=1;marginBottom=0;" parent="1" vertex="1">
          <mxGeometry x="425" y="1350" width="240" height="210" as="geometry" />
        </mxCell>
        <mxCell id="HHoXv9YRz0qzlwkMwSRR-133" value="Item 1" style="text;align=left;verticalAlign=middle;spacingLeft=4;spacingRight=4;overflow=hidden;points=[[0,0.5],[1,0.5]];portConstraint=eastwest;rotatable=0;fillColor=default;" parent="HHoXv9YRz0qzlwkMwSRR-132" vertex="1">
          <mxGeometry y="30" width="240" height="30" as="geometry" />
        </mxCell>
        <mxCell id="HHoXv9YRz0qzlwkMwSRR-134" value="Item 2" style="text;align=left;verticalAlign=middle;spacingLeft=4;spacingRight=4;overflow=hidden;points=[[0,0.5],[1,0.5]];portConstraint=eastwest;rotatable=0;fillColor=default;" parent="HHoXv9YRz0qzlwkMwSRR-132" vertex="1">
          <mxGeometry y="60" width="240" height="30" as="geometry" />
        </mxCell>
        <mxCell id="HHoXv9YRz0qzlwkMwSRR-135" value="Item 3" style="text;align=left;verticalAlign=middle;spacingLeft=4;spacingRight=4;overflow=hidden;points=[[0,0.5],[1,0.5]];portConstraint=eastwest;rotatable=0;fillColor=default;" parent="HHoXv9YRz0qzlwkMwSRR-132" vertex="1">
          <mxGeometry y="90" width="240" height="30" as="geometry" />
        </mxCell>
        <mxCell id="HHoXv9YRz0qzlwkMwSRR-136" value="Item 4" style="text;align=left;verticalAlign=middle;spacingLeft=4;spacingRight=4;overflow=hidden;points=[[0,0.5],[1,0.5]];portConstraint=eastwest;rotatable=0;fillColor=default;" parent="HHoXv9YRz0qzlwkMwSRR-132" vertex="1">
          <mxGeometry y="120" width="240" height="30" as="geometry" />
        </mxCell>
        <mxCell id="HHoXv9YRz0qzlwkMwSRR-137" value="Item 5" style="text;align=left;verticalAlign=middle;spacingLeft=4;spacingRight=4;overflow=hidden;points=[[0,0.5],[1,0.5]];portConstraint=eastwest;rotatable=0;fillColor=default;" parent="HHoXv9YRz0qzlwkMwSRR-132" vertex="1">
          <mxGeometry y="150" width="240" height="30" as="geometry" />
        </mxCell>
        <mxCell id="HHoXv9YRz0qzlwkMwSRR-138" value="Item 6" style="text;align=left;verticalAlign=middle;spacingLeft=4;spacingRight=4;overflow=hidden;points=[[0,0.5],[1,0.5]];portConstraint=eastwest;rotatable=0;fillColor=default;" parent="HHoXv9YRz0qzlwkMwSRR-132" vertex="1">
          <mxGeometry y="180" width="240" height="30" as="geometry" />
        </mxCell>
        <mxCell id="HHoXv9YRz0qzlwkMwSRR-140" value="user message to Admin" style="rounded=1;whiteSpace=wrap;html=1;shadow=1;glass=0;sketch=0;strokeWidth=5;fillColor=default;gradientColor=none;" parent="1" vertex="1">
          <mxGeometry x="140" y="1360" width="505" height="210" as="geometry" />
        </mxCell>
        <mxCell id="HHoXv9YRz0qzlwkMwSRR-141" value="" style="rounded=0;whiteSpace=wrap;html=1;fillColor=#bac8d3;strokeColor=#23445d;" parent="1" vertex="1">
          <mxGeometry x="-725" y="2330" width="640" height="780" as="geometry" />
        </mxCell>
        <mxCell id="HHoXv9YRz0qzlwkMwSRR-145" value="" style="endArrow=none;html=1;rounded=0;entryX=0.998;entryY=0.061;entryDx=0;entryDy=0;entryPerimeter=0;" parent="1" target="HHoXv9YRz0qzlwkMwSRR-141" edge="1">
          <mxGeometry width="50" height="50" relative="1" as="geometry">
            <mxPoint x="-725" y="2376" as="sourcePoint" />
            <mxPoint x="-325" y="2690" as="targetPoint" />
          </mxGeometry>
        </mxCell>
        <mxCell id="HHoXv9YRz0qzlwkMwSRR-146" value="navbar" style="rounded=0;whiteSpace=wrap;html=1;" parent="1" vertex="1">
          <mxGeometry x="-725" y="2330" width="640" height="80" as="geometry" />
        </mxCell>
        <mxCell id="HHoXv9YRz0qzlwkMwSRR-147" value="messages" style="rounded=0;whiteSpace=wrap;html=1;" parent="1" vertex="1">
          <mxGeometry x="-660" y="2450" width="510" height="130" as="geometry" />
        </mxCell>
        <mxCell id="HHoXv9YRz0qzlwkMwSRR-148" value="messages" style="rounded=0;whiteSpace=wrap;html=1;" parent="1" vertex="1">
          <mxGeometry x="-660" y="2600" width="510" height="130" as="geometry" />
        </mxCell>
        <mxCell id="HHoXv9YRz0qzlwkMwSRR-152" value="" style="rounded=0;whiteSpace=wrap;html=1;" parent="1" vertex="1">
          <mxGeometry x="-95" y="2410" width="10" height="700" as="geometry" />
        </mxCell>
        <mxCell id="HHoXv9YRz0qzlwkMwSRR-153" value="" style="rounded=0;whiteSpace=wrap;html=1;" parent="1" vertex="1">
          <mxGeometry x="-95" y="2410" width="10" height="50" as="geometry" />
        </mxCell>
        <mxCell id="HHoXv9YRz0qzlwkMwSRR-156" value="logged Admin" style="rounded=0;whiteSpace=wrap;html=1;" parent="1" vertex="1">
          <mxGeometry x="-185" y="2370" width="80" height="30" as="geometry" />
        </mxCell>
        <mxCell id="HHoXv9YRz0qzlwkMwSRR-157" value="Logo" style="rounded=0;whiteSpace=wrap;html=1;" parent="1" vertex="1">
          <mxGeometry x="-715" y="2370" width="70" height="30" as="geometry" />
        </mxCell>
        <mxCell id="HHoXv9YRz0qzlwkMwSRR-158" value="" style="rounded=0;whiteSpace=wrap;html=1;fillColor=#bac8d3;strokeColor=#23445d;" parent="1" vertex="1">
          <mxGeometry x="100" y="3440" width="640" height="780" as="geometry" />
        </mxCell>
        <mxCell id="HHoXv9YRz0qzlwkMwSRR-159" value="" style="endArrow=none;html=1;rounded=0;entryX=0.998;entryY=0.061;entryDx=0;entryDy=0;entryPerimeter=0;" parent="1" target="HHoXv9YRz0qzlwkMwSRR-158" edge="1">
          <mxGeometry width="50" height="50" relative="1" as="geometry">
            <mxPoint x="100" y="3486" as="sourcePoint" />
            <mxPoint x="500" y="3800" as="targetPoint" />
          </mxGeometry>
        </mxCell>
        <mxCell id="HHoXv9YRz0qzlwkMwSRR-160" value="navbar" style="rounded=0;whiteSpace=wrap;html=1;" parent="1" vertex="1">
          <mxGeometry x="100" y="3440" width="640" height="80" as="geometry" />
        </mxCell>
        <mxCell id="HHoXv9YRz0qzlwkMwSRR-161" value="params to sell" style="rounded=0;whiteSpace=wrap;html=1;" parent="1" vertex="1">
          <mxGeometry x="165" y="3550" width="510" height="350" as="geometry" />
        </mxCell>
        <mxCell id="HHoXv9YRz0qzlwkMwSRR-163" value="" style="rounded=0;whiteSpace=wrap;html=1;" parent="1" vertex="1">
          <mxGeometry x="730" y="3520" width="10" height="700" as="geometry" />
        </mxCell>
        <mxCell id="HHoXv9YRz0qzlwkMwSRR-164" value="" style="rounded=0;whiteSpace=wrap;html=1;" parent="1" vertex="1">
          <mxGeometry x="730" y="3520" width="10" height="50" as="geometry" />
        </mxCell>
        <mxCell id="HHoXv9YRz0qzlwkMwSRR-165" value="logged Admin" style="rounded=0;whiteSpace=wrap;html=1;" parent="1" vertex="1">
          <mxGeometry x="640" y="3480" width="80" height="30" as="geometry" />
        </mxCell>
        <mxCell id="HHoXv9YRz0qzlwkMwSRR-166" value="Logo" style="rounded=0;whiteSpace=wrap;html=1;" parent="1" vertex="1">
          <mxGeometry x="110" y="3480" width="70" height="30" as="geometry" />
        </mxCell>
        <mxCell id="HHoXv9YRz0qzlwkMwSRR-167" value="" style="rounded=0;whiteSpace=wrap;html=1;shadow=0;glass=0;sketch=0;strokeWidth=1;fillColor=default;gradientColor=none;" parent="1" vertex="1">
          <mxGeometry x="240" y="3620" width="140" height="20" as="geometry" />
        </mxCell>
        <mxCell id="HHoXv9YRz0qzlwkMwSRR-168" value="" style="rounded=0;whiteSpace=wrap;html=1;shadow=0;glass=0;sketch=0;strokeWidth=1;fillColor=default;gradientColor=none;" parent="1" vertex="1">
          <mxGeometry x="240" y="3650" width="140" height="20" as="geometry" />
        </mxCell>
        <mxCell id="HHoXv9YRz0qzlwkMwSRR-169" value="" style="rounded=0;whiteSpace=wrap;html=1;shadow=0;glass=0;sketch=0;strokeWidth=1;fillColor=default;gradientColor=none;" parent="1" vertex="1">
          <mxGeometry x="240" y="3680" width="140" height="20" as="geometry" />
        </mxCell>
        <mxCell id="HHoXv9YRz0qzlwkMwSRR-170" value="" style="rounded=0;whiteSpace=wrap;html=1;shadow=0;glass=0;sketch=0;strokeWidth=1;fillColor=default;gradientColor=none;" parent="1" vertex="1">
          <mxGeometry x="460" y="3620" width="140" height="20" as="geometry" />
        </mxCell>
        <mxCell id="HHoXv9YRz0qzlwkMwSRR-171" value="" style="rounded=0;whiteSpace=wrap;html=1;shadow=0;glass=0;sketch=0;strokeWidth=1;fillColor=default;gradientColor=none;" parent="1" vertex="1">
          <mxGeometry x="460" y="3650" width="140" height="20" as="geometry" />
        </mxCell>
        <mxCell id="HHoXv9YRz0qzlwkMwSRR-172" value="" style="rounded=0;whiteSpace=wrap;html=1;shadow=0;glass=0;sketch=0;strokeWidth=1;fillColor=default;gradientColor=none;" parent="1" vertex="1">
          <mxGeometry x="460" y="3680" width="140" height="20" as="geometry" />
        </mxCell>
        <mxCell id="HHoXv9YRz0qzlwkMwSRR-173" value="" style="rounded=0;whiteSpace=wrap;html=1;" parent="1" vertex="1">
          <mxGeometry x="295" y="3740" width="250" height="110" as="geometry" />
        </mxCell>
        <mxCell id="HHoXv9YRz0qzlwkMwSRR-174" value="" style="rounded=0;whiteSpace=wrap;html=1;shadow=0;glass=0;sketch=0;strokeWidth=1;fillColor=default;gradientColor=none;" parent="1" vertex="1">
          <mxGeometry x="355" y="3860" width="140" height="20" as="geometry" />
        </mxCell>
        <mxCell id="HHoXv9YRz0qzlwkMwSRR-175" style="edgeStyle=orthogonalEdgeStyle;rounded=0;orthogonalLoop=1;jettySize=auto;html=1;exitX=0.75;exitY=0;exitDx=0;exitDy=0;entryX=0.714;entryY=0.5;entryDx=0;entryDy=0;entryPerimeter=0;" parent="1" source="HHoXv9YRz0qzlwkMwSRR-174" target="HHoXv9YRz0qzlwkMwSRR-174" edge="1">
          <mxGeometry relative="1" as="geometry" />
        </mxCell>
        <mxCell id="HHoXv9YRz0qzlwkMwSRR-176" value="" style="rounded=0;whiteSpace=wrap;html=1;fillColor=#bac8d3;strokeColor=#23445d;" parent="1" vertex="1">
          <mxGeometry x="-725" y="3440" width="640" height="780" as="geometry" />
        </mxCell>
        <mxCell id="HHoXv9YRz0qzlwkMwSRR-177" value="" style="endArrow=none;html=1;rounded=0;entryX=0.998;entryY=0.061;entryDx=0;entryDy=0;entryPerimeter=0;" parent="1" target="HHoXv9YRz0qzlwkMwSRR-176" edge="1">
          <mxGeometry width="50" height="50" relative="1" as="geometry">
            <mxPoint x="-725" y="3486" as="sourcePoint" />
            <mxPoint x="-325" y="3800" as="targetPoint" />
          </mxGeometry>
        </mxCell>
        <mxCell id="HHoXv9YRz0qzlwkMwSRR-178" value="navbar" style="rounded=0;whiteSpace=wrap;html=1;" parent="1" vertex="1">
          <mxGeometry x="-725" y="3440" width="640" height="80" as="geometry" />
        </mxCell>
        <mxCell id="HHoXv9YRz0qzlwkMwSRR-179" value="messages" style="rounded=0;whiteSpace=wrap;html=1;" parent="1" vertex="1">
          <mxGeometry x="-660" y="3560" width="510" height="130" as="geometry" />
        </mxCell>
        <mxCell id="HHoXv9YRz0qzlwkMwSRR-180" value="messages" style="rounded=0;whiteSpace=wrap;html=1;" parent="1" vertex="1">
          <mxGeometry x="-660" y="3710" width="510" height="130" as="geometry" />
        </mxCell>
        <mxCell id="HHoXv9YRz0qzlwkMwSRR-181" value="" style="rounded=0;whiteSpace=wrap;html=1;" parent="1" vertex="1">
          <mxGeometry x="-95" y="3520" width="10" height="700" as="geometry" />
        </mxCell>
        <mxCell id="HHoXv9YRz0qzlwkMwSRR-182" value="" style="rounded=0;whiteSpace=wrap;html=1;" parent="1" vertex="1">
          <mxGeometry x="-95" y="3520" width="10" height="50" as="geometry" />
        </mxCell>
        <mxCell id="HHoXv9YRz0qzlwkMwSRR-183" value="logged Admin" style="rounded=0;whiteSpace=wrap;html=1;" parent="1" vertex="1">
          <mxGeometry x="-185" y="3480" width="80" height="30" as="geometry" />
        </mxCell>
        <mxCell id="HHoXv9YRz0qzlwkMwSRR-184" value="Logo" style="rounded=0;whiteSpace=wrap;html=1;" parent="1" vertex="1">
          <mxGeometry x="-715" y="3480" width="70" height="30" as="geometry" />
        </mxCell>
        <mxCell id="HHoXv9YRz0qzlwkMwSRR-185" value="Admin message to user" style="rounded=1;whiteSpace=wrap;html=1;shadow=1;glass=0;sketch=0;strokeWidth=5;fillColor=default;gradientColor=none;" parent="1" vertex="1">
          <mxGeometry x="-655" y="3600" width="505" height="210" as="geometry" />
        </mxCell>
        <mxCell id="HHoXv9YRz0qzlwkMwSRR-189" value="post" style="rounded=0;whiteSpace=wrap;html=1;" parent="1" vertex="1">
          <mxGeometry x="880" y="2540" width="510" height="130" as="geometry" />
        </mxCell>
        <mxCell id="HHoXv9YRz0qzlwkMwSRR-190" value="photo" style="whiteSpace=wrap;html=1;aspect=fixed;rounded=0;shadow=0;glass=0;sketch=0;strokeWidth=3;fillColor=none;gradientColor=#ffffff;" parent="1" vertex="1">
          <mxGeometry x="900" y="2560" width="90" height="90" as="geometry" />
        </mxCell>
        <mxCell id="HHoXv9YRz0qzlwkMwSRR-191" value="Description" style="rounded=0;whiteSpace=wrap;html=1;shadow=0;glass=0;sketch=0;strokeWidth=1;fillColor=default;gradientColor=none;" parent="1" vertex="1">
          <mxGeometry x="1000" y="2620" width="380" height="40" as="geometry" />
        </mxCell>
        <mxCell id="HHoXv9YRz0qzlwkMwSRR-195" value="title" style="rounded=0;whiteSpace=wrap;html=1;shadow=0;glass=0;sketch=0;fontSize=6;strokeWidth=1;fillColor=default;gradientColor=none;" parent="1" vertex="1">
          <mxGeometry x="1000" y="2560" width="130" height="20" as="geometry" />
        </mxCell>
        <mxCell id="HHoXv9YRz0qzlwkMwSRR-196" value="price" style="rounded=0;whiteSpace=wrap;html=1;shadow=0;glass=0;sketch=0;fontSize=6;strokeWidth=1;fillColor=default;gradientColor=none;" parent="1" vertex="1">
          <mxGeometry x="1250" y="2560" width="130" height="20" as="geometry" />
        </mxCell>
        <mxCell id="HHoXv9YRz0qzlwkMwSRR-197" value="post" style="rounded=0;whiteSpace=wrap;html=1;" parent="1" vertex="1">
          <mxGeometry x="880" y="2685" width="510" height="130" as="geometry" />
        </mxCell>
        <mxCell id="kcWS1jkIcYf4hen80Twd-1" value="" style="endArrow=none;html=1;rounded=0;fontSize=6;fillColor=#e51400;strokeColor=#B20000;strokeWidth=9;" edge="1" parent="1">
          <mxGeometry width="50" height="50" relative="1" as="geometry">
            <mxPoint x="-780" y="926.6666666666666" as="sourcePoint" />
            <mxPoint y="40" as="targetPoint" />
          </mxGeometry>
        </mxCell>
        <mxCell id="kcWS1jkIcYf4hen80Twd-2" value="search bar" style="rounded=0;whiteSpace=wrap;html=1;" vertex="1" parent="1">
          <mxGeometry x="-630" y="2340" width="440" height="30" as="geometry" />
        </mxCell>
        <mxCell id="kcWS1jkIcYf4hen80Twd-3" value="messageLineItem   " style="swimlane;fontStyle=0;childLayout=stackLayout;horizontal=1;startSize=30;horizontalStack=0;resizeParent=1;resizeParentMax=0;resizeLast=0;collapsible=1;marginBottom=0;rounded=0;shadow=0;glass=0;sketch=0;fontSize=6;strokeWidth=3;fillColor=none;gradientColor=none;" vertex="1" parent="1">
          <mxGeometry x="980" y="1520" width="140" height="180" as="geometry" />
        </mxCell>
        <mxCell id="kcWS1jkIcYf4hen80Twd-4" value="id   " style="text;strokeColor=none;fillColor=none;align=left;verticalAlign=middle;spacingLeft=4;spacingRight=4;overflow=hidden;points=[[0,0.5],[1,0.5]];portConstraint=eastwest;rotatable=0;rounded=0;shadow=0;glass=0;sketch=0;fontSize=6;" vertex="1" parent="kcWS1jkIcYf4hen80Twd-3">
          <mxGeometry y="30" width="140" height="30" as="geometry" />
        </mxCell>
        <mxCell id="kcWS1jkIcYf4hen80Twd-5" value="message_id" style="text;strokeColor=none;fillColor=none;align=left;verticalAlign=middle;spacingLeft=4;spacingRight=4;overflow=hidden;points=[[0,0.5],[1,0.5]];portConstraint=eastwest;rotatable=0;rounded=0;shadow=0;glass=0;sketch=0;fontSize=6;" vertex="1" parent="kcWS1jkIcYf4hen80Twd-3">
          <mxGeometry y="60" width="140" height="30" as="geometry" />
        </mxCell>
        <mxCell id="kcWS1jkIcYf4hen80Twd-6" value="sender_id" style="text;strokeColor=none;fillColor=none;align=left;verticalAlign=middle;spacingLeft=4;spacingRight=4;overflow=hidden;points=[[0,0.5],[1,0.5]];portConstraint=eastwest;rotatable=0;rounded=0;shadow=0;glass=0;sketch=0;fontSize=6;" vertex="1" parent="kcWS1jkIcYf4hen80Twd-3">
          <mxGeometry y="90" width="140" height="30" as="geometry" />
        </mxCell>
        <mxCell id="kcWS1jkIcYf4hen80Twd-7" value="receiver_id" style="text;strokeColor=none;fillColor=none;align=left;verticalAlign=middle;spacingLeft=4;spacingRight=4;overflow=hidden;points=[[0,0.5],[1,0.5]];portConstraint=eastwest;rotatable=0;rounded=0;shadow=0;glass=0;sketch=0;fontSize=6;" vertex="1" parent="kcWS1jkIcYf4hen80Twd-3">
          <mxGeometry y="120" width="140" height="30" as="geometry" />
        </mxCell>
        <mxCell id="kcWS1jkIcYf4hen80Twd-8" value="text" style="text;strokeColor=none;fillColor=none;align=left;verticalAlign=middle;spacingLeft=4;spacingRight=4;overflow=hidden;points=[[0,0.5],[1,0.5]];portConstraint=eastwest;rotatable=0;rounded=0;shadow=0;glass=0;sketch=0;fontSize=6;" vertex="1" parent="kcWS1jkIcYf4hen80Twd-3">
          <mxGeometry y="150" width="140" height="30" as="geometry" />
        </mxCell>
        <mxCell id="kcWS1jkIcYf4hen80Twd-10" value="messages" style="swimlane;fontStyle=0;childLayout=stackLayout;horizontal=1;startSize=30;horizontalStack=0;resizeParent=1;resizeParentMax=0;resizeLast=0;collapsible=1;marginBottom=0;rounded=0;shadow=0;glass=0;sketch=0;fontSize=6;strokeWidth=3;fillColor=none;gradientColor=none;" vertex="1" parent="1">
          <mxGeometry x="800" y="1560" width="140" height="120" as="geometry" />
        </mxCell>
        <mxCell id="kcWS1jkIcYf4hen80Twd-11" value="id   " style="text;strokeColor=none;fillColor=none;align=left;verticalAlign=middle;spacingLeft=4;spacingRight=4;overflow=hidden;points=[[0,0.5],[1,0.5]];portConstraint=eastwest;rotatable=0;rounded=0;shadow=0;glass=0;sketch=0;fontSize=6;" vertex="1" parent="kcWS1jkIcYf4hen80Twd-10">
          <mxGeometry y="30" width="140" height="30" as="geometry" />
        </mxCell>
        <mxCell id="kcWS1jkIcYf4hen80Twd-14" value="product" style="text;strokeColor=none;fillColor=none;align=left;verticalAlign=middle;spacingLeft=4;spacingRight=4;overflow=hidden;points=[[0,0.5],[1,0.5]];portConstraint=eastwest;rotatable=0;rounded=0;shadow=0;glass=0;sketch=0;fontSize=6;" vertex="1" parent="kcWS1jkIcYf4hen80Twd-10">
          <mxGeometry y="60" width="140" height="30" as="geometry" />
        </mxCell>
        <mxCell id="kcWS1jkIcYf4hen80Twd-15" value="dateTime" style="text;strokeColor=none;fillColor=none;align=left;verticalAlign=middle;spacingLeft=4;spacingRight=4;overflow=hidden;points=[[0,0.5],[1,0.5]];portConstraint=eastwest;rotatable=0;rounded=0;shadow=0;glass=0;sketch=0;fontSize=6;" vertex="1" parent="kcWS1jkIcYf4hen80Twd-10">
          <mxGeometry y="90" width="140" height="30" as="geometry" />
        </mxCell>
      </root>
    </mxGraphModel>
  </diagram>
</mxfile>
